<?xml version="1.0" encoding="UTF-8" standalone="no"?>
<!DOCTYPE svg PUBLIC "-//W3C//DTD SVG 1.1//EN" "http://www.w3.org/Graphics/SVG/1.1/DTD/svg11.dtd">
<svg width="100%" height="100%" viewBox="0 0 4096 4096" version="1.1" xmlns="http://www.w3.org/2000/svg" xmlns:xlink="http://www.w3.org/1999/xlink" xml:space="preserve" xmlns:serif="http://www.serif.com/" style="fill-rule:evenodd;clip-rule:evenodd;">
    <g id="cell" transform="matrix(1,0,0,1,1228.8,1638.4)">
        <rect x="0" y="0" width="409.6" height="409.6" style="fill:rgb(253,253,253);fill-opacity:0;"/>
    </g>
    <g id="Icons" transform="matrix(19.5981,0,0,19.5981,5390.44,3107.67)">
        <g id="Light">
            <g id="ICON_ASTERISK" transform="matrix(0.0255009,-0.0147229,0.0147229,0.0255009,-255.192,-116.63)">
                <path d="M1490.13,993.012L1522.16,1011.51L1492.55,1062.8L1551.78,1062.8L1551.78,1099.79L1492.55,1099.79L1522.16,1151.08L1490.13,1169.58L1460.52,1118.29L1430.9,1169.58L1398.87,1151.08L1428.48,1099.79L1369.26,1099.79L1369.26,1062.8L1428.48,1062.8L1398.87,1011.51L1430.9,993.012L1460.52,1044.31L1490.13,993.012Z" style="fill:white;"/>
            </g>
            <g id="ICON_VECTOR" transform="matrix(0.857142,0,0,0.857143,-31.6143,-14.9743)">
                <g id="rect39698-0-9" transform="matrix(1.16667,0,0,1.16667,37.175,17.7617)">
                    <rect x="-231.049" y="-114.57" width="16" height="16" style="fill:rgb(179,179,179);fill-opacity:0;"/>
                </g>
                <g id="path21084-9-4-1" transform="matrix(0.897502,0,0,0.897502,-22.8622,-10.9232)">
                    <ellipse cx="-223.049" cy="-106.57" rx="6.471" ry="6.471" style="fill:rgb(99,99,199);stroke:rgb(39,39,39);stroke-width:1.86px;"/>
                </g>
            </g>
            <g id="ICON_VALUE" transform="matrix(0.857142,0,0,0.857143,-34.5143,-14.9743)">
                <g id="rect39698-0-1" transform="matrix(1.16667,0,0,1.16667,40.675,17.7617)">
                    <rect x="-252.049" y="-114.57" width="16" height="16" style="fill:rgb(179,179,179);fill-opacity:0;"/>
                </g>
                <g id="path21084-9-4" transform="matrix(0.897502,0,0,0.897502,-25.0146,-10.9232)">
                    <ellipse cx="-244.049" cy="-106.57" rx="6.471" ry="6.471" style="fill:rgb(161,161,161);stroke:rgb(38,38,38);stroke-width:1.86px;"/>
                </g>
            </g>
            <g id="ICON_RGB" transform="matrix(0.857146,0,0,0.857143,-37.4133,-14.9743)">
                <g id="rect39698-0-4" transform="matrix(1.16666,0,0,1.16667,44.1738,17.7617)">
                    <g transform="matrix(0.0510254,-0,-0,0.0510254,-275.499,-158.82)">
                    </g>
                </g>
                <g id="path21084-9" transform="matrix(0.897502,0,0,0.897502,-27.1671,-10.9232)">
                    <ellipse cx="-265.049" cy="-106.57" rx="6.471" ry="6.471" style="fill:rgb(199,199,41);stroke:rgb(38,38,38);stroke-width:1.86px;"/>
                </g>
            </g>
            <g id="ICON_CHANNELS" transform="matrix(0.929615,0,0,0.929615,-5.34034,-8.97796)">
                <g transform="matrix(0.0510254,0,0,0.0510254,-274.579,-159.219)">
                    <circle cx="3826.32" cy="539.523" r="64.202" style="fill:white;"/>
                </g>
                <g transform="matrix(0.0510254,0,0,0.0510254,-267.605,-154.793)">
                    <circle cx="3826.32" cy="539.523" r="64.202" style="fill:white;"/>
                </g>
                <g transform="matrix(0.0510254,0,0,0.0510254,-274.621,-150.951)">
                    <circle cx="3826.32" cy="539.523" r="64.202" style="fill:white;"/>
                </g>
            </g>
            <g id="ICON_OBJECT_DATAMODE" transform="matrix(0.984061,0,0,0.984061,-235.357,-475.578)">
                <path d="M27.5,347C27.226,347 27,347.226 27,347.5L27,351L28,351L28,348L31,348L31,347L27.5,347ZM37,347L37,348L40,348L40,351L41,351L41,347.5C41,347.226 40.774,347 40.5,347L37,347ZM27,357L27,360.5C27,360.774 27.226,361 27.5,361L31,361L31,360L28,360L28,357L27,357ZM40,357L40,360L37,360L37,361L40.5,361C40.774,361 41,360.774 41,360.5L41,357L40,357Z" style="fill:white;fill-opacity:0.6;fill-rule:nonzero;"/>
                <path d="M30.5,350C30.224,350 30,350.224 30,350.5L30,357.5C30,357.776 30.224,358 30.5,358L37.5,358C37.776,358 38,357.776 38,357.5L38,350.5C38,350.224 37.776,350 37.5,350L30.5,350Z" style="fill:white;fill-rule:nonzero;"/>
            </g>
            <g id="ICON_EDGE_DETECT" transform="matrix(0.00984061,0,0,0.00984061,-188.872,-93.2926)">
                <g id="path1" transform="matrix(100,0,0,100,14500,-51500)">
                    <path d="M-141,519.5L-141,521L-140,521L-140,519.5L-141,519.5ZM-141,522L-141,524L-140,524L-140,522L-141,522ZM-141,525L-141,526.279L-143.586,528.631L-142.914,529.369L-140.311,527.002L-139,527L-139,526L-140,526L-140,525L-141,525ZM-137.992,526L-137.992,527L-135.992,527L-135.992,526L-137.992,526ZM-135,526L-135,527L-133.5,527L-133.5,526L-135,526Z" style="fill:white;fill-opacity:0.6;fill-rule:nonzero;"/>
                </g>
                <g id="path2" transform="matrix(100,0,0,100,-29900,-24100)">
                    <path d="M303.5,242C303.367,242 303.24,242.053 303.146,242.146L300.146,245.146C300.053,245.24 300,245.367 300,245.5L300,255.5C300,255.774 300.226,256 300.5,256L310.5,256C310.633,256 310.76,255.947 310.854,255.854L313.854,252.854C313.947,252.76 314,252.633 314,252.5L314,242.5C314,242.226 313.774,242 313.5,242L303.5,242ZM303.707,243L312.293,243L310.293,245L301.707,245L303.707,243ZM313,243.707L313,252.293L311,254.293L311,245.707L313,243.707ZM301,246L310,246L310,255L301,255L301,246Z" style="fill:white;fill-rule:nonzero;"/>
                </g>
            </g>
            <g id="ICON_BACKFACE" transform="matrix(-0.983272,0,0,0.983272,369.144,-206.359)">
                <g transform="matrix(-1,0,0,1,483.993,-42.006)">
                    <path d="M-28.482,162.002C-28.488,162.002 -28.493,162.002 -28.498,162.002C-28.772,162.002 -28.998,162.227 -28.998,162.502C-28.998,162.636 -28.944,162.765 -28.848,162.859L-27.701,164.006L-33.287,164.006C-33.635,163.412 -34.275,163.006 -35.008,163.006C-36.106,163.006 -37.008,163.907 -37.008,165.006C-37.008,166.105 -36.106,167.006 -35.008,167.006C-33.909,167.006 -33.008,166.105 -33.008,165.006L-27.701,165.006L-28.848,166.152C-28.941,166.246 -28.994,166.373 -28.994,166.506C-28.994,166.78 -28.768,167.006 -28.493,167.006C-28.36,167.006 -28.233,166.954 -28.139,166.859L-26.139,164.859C-25.945,164.665 -25.945,164.346 -26.139,164.152L-28.139,162.152C-28.229,162.06 -28.353,162.006 -28.482,162.002ZM-35.008,164.006C-34.45,164.006 -34.008,164.448 -34.008,165.006C-34.008,165.564 -34.45,166.006 -35.008,166.006C-35.566,166.006 -36.008,165.564 -36.008,165.006C-36.008,164.448 -35.566,164.006 -35.008,164.006Z" style="fill:white;fill-rule:nonzero;"/>
                </g>
                <g transform="matrix(0,1,1,0,-94.0025,680.992)">
                    <path d="M-559.998,608.996L-564.5,609C-564.774,609 -565,609.226 -565,609.5C-565,609.501 -565,609.503 -565,609.504L-564.992,610.506C-564.991,610.551 -564.985,610.595 -564.973,610.639L-562.98,617.637C-562.919,617.851 -562.723,618 -562.5,618L-551.5,618C-551.227,618 -551.002,617.777 -551,617.504L-550.99,616.506C-550.99,616.458 -550.996,616.411 -551.01,616.365L-553.015,609.363C-553.076,609.149 -553.273,609 -553.496,609L-556.998,608.996L-556.998,609.996L-553.873,610L-551.992,616.57L-551.994,617L-562.121,617L-563.992,610.432L-563.996,610L-559.998,609.996L-559.998,608.996Z" style="fill:white;fill-opacity:0.6;fill-rule:nonzero;"/>
                </g>
            </g>
            <g id="ICON_BACKFACE_SMALL" transform="matrix(-0.728349,0,0,0.728349,256.166,-176.79)">
                <g transform="matrix(-1,0,0,1,483.993,-42.006)">
                    <path d="M-28.482,162.002C-28.488,162.002 -28.493,162.002 -28.498,162.002C-28.772,162.002 -28.998,162.227 -28.998,162.502C-28.998,162.636 -28.944,162.765 -28.848,162.859L-27.701,164.006L-33.287,164.006C-33.635,163.412 -34.275,163.006 -35.008,163.006C-36.106,163.006 -37.008,163.907 -37.008,165.006C-37.008,166.105 -36.106,167.006 -35.008,167.006C-33.909,167.006 -33.008,166.105 -33.008,165.006L-27.701,165.006L-28.848,166.152C-28.941,166.246 -28.994,166.373 -28.994,166.506C-28.994,166.78 -28.768,167.006 -28.493,167.006C-28.36,167.006 -28.233,166.954 -28.139,166.859L-26.139,164.859C-25.945,164.665 -25.945,164.346 -26.139,164.152L-28.139,162.152C-28.229,162.06 -28.353,162.006 -28.482,162.002ZM-35.008,164.006C-34.45,164.006 -34.008,164.448 -34.008,165.006C-34.008,165.564 -34.45,166.006 -35.008,166.006C-35.566,166.006 -36.008,165.564 -36.008,165.006C-36.008,164.448 -35.566,164.006 -35.008,164.006Z" style="fill:white;fill-rule:nonzero;"/>
                </g>
                <g transform="matrix(0,1,1,0,-94.0025,680.992)">
                    <path d="M-559.998,608.996L-564.5,609C-564.774,609 -565,609.226 -565,609.5C-565,609.501 -565,609.503 -565,609.504L-564.992,610.506C-564.991,610.551 -564.985,610.595 -564.973,610.639L-562.98,617.637C-562.919,617.851 -562.723,618 -562.5,618L-551.5,618C-551.227,618 -551.002,617.777 -551,617.504L-550.99,616.506C-550.99,616.458 -550.996,616.411 -551.01,616.365L-553.015,609.363C-553.076,609.149 -553.273,609 -553.496,609L-556.998,608.996L-556.998,609.996L-553.873,610L-551.992,616.57L-551.994,617L-562.121,617L-563.992,610.432L-563.996,610L-559.998,609.996L-559.998,608.996Z" style="fill:white;fill-opacity:0.6;fill-rule:nonzero;"/>
                </g>
            </g>
            <g id="ICON_MOD_MASK" transform="matrix(0.835323,0,0,0.835323,-556.577,-265.43)">
                <path d="M342.5,158C342.224,158 342,158.224 342,158.5L342,171.5C342,171.776 342.224,172 342.5,172L355.5,172C355.776,172 356,171.776 356,171.5L356,158.5C356,158.224 355.776,158 355.5,158L342.5,158ZM349,161C351.202,161 353,162.798 353,165C353,167.202 351.202,169 349,169C346.798,169 345,167.202 345,165C345,162.798 346.798,161 349,161Z" style="fill:white;fill-rule:nonzero;"/>
            </g>
            <g id="ICON_CLEAN" transform="matrix(1,0,0,1,0.694907,0.767574)">
                <g transform="matrix(0.0661301,0,0,0.0661301,-293.62,-159.147)">
                    <path d="M1415.27,119.624C1417.01,115.622 1420.96,113.033 1425.32,113.033C1429.69,113.033 1433.64,115.622 1435.38,119.624C1439.67,129.637 1445.26,139.115 1452.01,145.873C1458.77,152.632 1468.25,158.22 1478.26,162.507C1482.27,164.249 1484.85,168.199 1484.85,172.564C1484.85,176.929 1482.27,180.879 1478.26,182.621C1468.25,186.908 1458.77,192.496 1452.01,199.254C1445.26,206.013 1439.67,215.491 1435.38,225.504C1433.64,229.506 1429.69,232.095 1425.32,232.094C1420.96,232.094 1417.01,229.506 1415.27,225.504C1410.98,215.491 1405.39,206.013 1398.63,199.254C1391.87,192.496 1382.4,186.908 1372.38,182.621C1368.38,180.879 1365.79,176.929 1365.79,172.564C1365.79,168.199 1368.38,164.249 1372.38,162.507C1382.4,158.22 1391.87,152.632 1398.63,145.873C1405.39,139.115 1410.98,129.637 1415.27,119.624Z" style="fill:white;"/>
                </g>
                <g transform="matrix(0.0418822,0,0,0.0418822,-264.404,-159.584)">
                    <path d="M1416.58,116.435C1418.02,112.869 1421.48,110.533 1425.32,110.533C1429.17,110.533 1432.63,112.869 1434.07,116.435C1438.5,127.604 1444.54,138.401 1452.01,145.873C1459.49,153.346 1470.28,159.388 1481.45,163.821C1485.02,165.259 1487.35,168.719 1487.35,172.564C1487.35,176.409 1485.02,179.869 1481.45,181.306C1470.28,185.74 1459.49,191.782 1452.01,199.254C1444.54,206.727 1438.5,217.523 1434.07,228.693C1432.63,232.259 1429.17,234.595 1425.32,234.595C1421.48,234.595 1418.02,232.259 1416.58,228.693C1412.15,217.523 1406.1,206.727 1398.63,199.254C1391.16,191.782 1380.36,185.74 1369.19,181.306C1365.63,179.869 1363.29,176.409 1363.29,172.564C1363.29,168.719 1365.63,165.259 1369.19,163.822C1380.36,159.388 1391.16,153.346 1398.63,145.873C1406.1,138.401 1412.15,127.604 1416.58,116.435Z" style="fill:white;"/>
                </g>
                <g transform="matrix(0.0395033,0,0,0.0395033,-262.367,-151.3)">
                    <path d="M1416.09,117.648C1417.64,113.918 1421.28,111.487 1425.32,111.488C1429.36,111.488 1433,113.918 1434.55,117.648C1438.94,128.383 1444.81,138.672 1452.01,145.873C1459.21,153.075 1469.5,158.948 1480.24,163.333C1483.97,164.883 1486.4,168.525 1486.4,172.564C1486.4,176.603 1483.97,180.245 1480.24,181.795C1469.5,186.18 1459.21,192.053 1452.01,199.254C1444.81,206.456 1438.94,216.745 1434.55,227.48C1433,231.21 1429.36,233.64 1425.32,233.64C1421.28,233.64 1417.64,231.209 1416.09,227.479C1411.71,216.745 1405.83,206.456 1398.63,199.254C1391.43,192.053 1381.14,186.18 1370.41,181.795C1366.68,180.245 1364.25,176.603 1364.25,172.564C1364.25,168.525 1366.68,164.883 1370.41,163.333C1381.14,158.948 1391.43,153.075 1398.63,145.873C1405.83,138.672 1411.71,128.383 1416.09,117.648Z" style="fill:white;"/>
                </g>
            </g>
            <g id="ICON_TEXTURE_FOLDER" transform="matrix(0.984061,0,0,0.984061,-545.102,-227.102)">
                <path d="M363.5,95C363.224,95 363,95.224 363,95.5L363,99L377,99L377,97.5C377,97.224 376.776,97 376.5,97L368,97L368,95.5C368,95.224 367.776,95 367.5,95L363.5,95Z" style="fill:white;fill-rule:nonzero;"/>
                <path d="M363.5,100L376.5,100C376.776,100 377,100.224 377,100.5L377,107.5C377,107.776 376.776,108 376.5,108L363.5,108C363.224,108 363,107.776 363,107.5L363,100.5C363,100.224 363.224,100 363.5,100ZM371.657,102.739L371.657,101.347L370.264,101.347L370.264,102.739L371.657,102.739ZM371.657,102.739L371.657,104.132L373.049,104.132L373.049,102.739L371.657,102.739ZM373.049,102.739L374.442,102.739L374.442,101.347L373.049,101.347L373.049,102.739ZM374.442,102.739L374.442,104.132L375.835,104.132L375.835,102.739L374.442,102.739ZM374.442,104.132L373.049,104.132L373.049,105.525L374.442,105.525L374.442,104.132ZM373.049,105.525L371.657,105.525L371.657,106.918L373.049,106.918L373.049,105.525ZM371.657,105.525L371.657,104.132L370.264,104.132L370.264,105.525L371.657,105.525ZM374.442,105.525L374.442,106.918L375.835,106.918L375.835,105.525L374.442,105.525Z" style="fill:white;"/>
            </g>
            <g id="ICON_LAMP" transform="matrix(0.918457,0,0,0.918457,-1062.47,-1584)">
                <path d="M1028,1556C1024.72,1556 1022,1558.44 1022,1561.5C1022,1563.21 1022.9,1564.65 1024.15,1565.86L1025.15,1566.85C1025.23,1566.94 1025.33,1566.99 1025.45,1567C1025.19,1567.03 1025,1567.24 1025,1567.5C1025,1567.77 1025.22,1568 1025.5,1568C1025.5,1568 1025.5,1568 1025.5,1568L1030.5,1568C1030.77,1568 1031,1567.77 1031,1567.5C1031,1567.24 1030.8,1567.03 1030.55,1567C1030.66,1566.99 1030.77,1566.94 1030.85,1566.85L1031.85,1565.86C1033.06,1564.66 1034,1563.2 1034,1561.5C1034,1558.44 1031.28,1556 1028,1556L1028,1556ZM1028,1557C1030.79,1557 1033,1559.04 1033,1561.5C1033,1562.83 1032.26,1564.05 1031.15,1565.14L1030.15,1566.14C1030.05,1566.24 1030,1566.37 1030,1566.5C1030,1566.75 1030.18,1566.96 1030.43,1567L1025.57,1567C1025.82,1566.97 1026.01,1566.75 1026.01,1566.5C1026.01,1566.37 1025.95,1566.24 1025.86,1566.14C1025.86,1566.14 1024.85,1565.14 1024.85,1565.13C1023.71,1564.03 1023,1562.85 1023,1561.49C1023,1559.03 1025.21,1556.99 1028,1556.99L1028,1557ZM1025.5,1569C1025.5,1569 1025.5,1569 1025.49,1569C1025.22,1569 1024.99,1569.23 1024.99,1569.5C1024.99,1569.77 1025.22,1570 1025.49,1570C1025.5,1570 1025.5,1570 1025.5,1570L1027,1570L1027,1570.5C1027,1570.77 1027.23,1571 1027.5,1571L1028.5,1571C1028.77,1571 1029,1570.77 1029,1570.5L1029,1570L1030.5,1570C1030.5,1570 1030.51,1570 1030.51,1570C1030.78,1570 1031.01,1569.77 1031.01,1569.5C1031.01,1569.23 1030.78,1569 1030.51,1569C1030.51,1569 1030.5,1569 1030.5,1569L1025.5,1569Z" style="fill:white;fill-rule:nonzero;"/>
                <path d="M1025.49,1561.01C1025.22,1561.01 1025.01,1561.24 1025.01,1561.51C1025.01,1561.63 1025.06,1561.76 1025.15,1561.85L1026,1562.71L1026,1564.25C1026,1564.25 1026,1564.26 1026,1564.26C1026,1564.53 1026.23,1564.76 1026.5,1564.76C1026.77,1564.76 1027,1564.53 1027,1564.26C1027,1564.26 1027,1564.25 1027,1564.25L1027,1563L1029,1563L1029,1564.25C1029,1564.25 1029,1564.26 1029,1564.26C1029,1564.53 1029.23,1564.76 1029.5,1564.76C1029.77,1564.76 1030,1564.53 1030,1564.26C1030,1564.26 1030,1564.25 1030,1564.25L1030,1562.71L1030.85,1561.85C1030.94,1561.76 1030.99,1561.64 1030.99,1561.51C1030.99,1561.23 1030.77,1561.01 1030.49,1561.01C1030.36,1561.01 1030.24,1561.06 1030.15,1561.15L1029.29,1562L1026.71,1562L1025.85,1561.15C1025.76,1561.05 1025.62,1561 1025.49,1561.01Z" style="fill:white;fill-opacity:0.6;fill-rule:nonzero;"/>
            </g>
            <g id="ICON_NODETREE" transform="matrix(0.984061,0,0,0.984061,-545.586,-662.027)">
                <path d="M324.609,536C323.753,536 323,536.648 323,537.5L323,540.5C323,541.352 323.753,542 324.609,542L329.391,542C330.247,542 331,541.352 331,540.5L331,537.5C331,536.648 330.247,536 329.391,536L324.609,536ZM332,537L332,540C332.563,540 333,539.496 333,538.969L333,538.031C333,537.504 332.563,537 332,537ZM324.465,540C324.477,540 324.488,540 324.5,540L329.5,540C329.502,540 329.505,540 329.507,540C329.781,540 330.007,540.226 330.007,540.5C330.007,540.774 329.781,541 329.507,541C329.505,541 329.502,541 329.5,541L324.5,541C324.494,541 324.488,541 324.482,541C324.208,541 323.982,540.774 323.982,540.5C323.982,540.232 324.197,540.009 324.465,540ZM322.609,544C321.753,544 321,544.648 321,545.5L321,548.5C321,549.352 321.753,550 322.609,550L327.391,550C328.247,550 329,549.352 329,548.5L329,545.5C329,544.648 328.247,544 327.391,544L322.609,544ZM330,546L330,549C330.563,549 331,548.496 331,547.969L331,547.031C331,546.504 330.563,546 330,546ZM322.465,548C322.477,548 322.488,548 322.5,548L327.5,548C327.502,548 327.505,548 327.507,548C327.781,548 328.007,548.226 328.007,548.5C328.007,548.774 327.781,549 327.507,549C327.505,549 327.502,549 327.5,549L322.5,549C322.494,549 322.488,549 322.482,549C322.208,549 321.982,548.774 321.982,548.5C321.982,548.232 322.197,548.009 322.465,548Z" style="fill:white;fill-rule:nonzero;"/>
                <g transform="matrix(1,0,0,1,0,231)">
                    <path d="M332.5,307L332.5,308C333.059,308 333.408,308.143 333.633,308.367C333.857,308.592 334,308.941 334,309.5L334,314.5C334,315.059 333.857,315.408 333.633,315.633C333.408,315.857 333.059,316 332.5,316L330.5,316L330.5,317L332.5,317C333.239,317 333.889,316.791 334.34,316.34C334.791,315.889 335,315.239 335,314.5L335,309.5C335,308.761 334.791,308.111 334.34,307.66C333.889,307.209 333.239,307 332.5,307Z" style="fill:white;fill-opacity:0.7;fill-rule:nonzero;"/>
                </g>
            </g>
            <g id="ICON_FILE_FOLDER" transform="matrix(0.892428,0,0,0.892428,-469.398,-238.575)">
                <path d="M363.5,95C363.224,95 363,95.224 363,95.5L363,99L377,99L377,97.5C377,97.224 376.776,97 376.5,97L368,97L368,95.5C368,95.224 367.776,95 367.5,95L363.5,95Z" style="fill:white;fill-rule:nonzero;"/>
                <path d="M363.5,100C363.224,100 363,100.224 363,100.5L363,107.5C363,107.776 363.224,108 363.5,108L376.5,108C376.776,108 377,107.776 377,107.5L377,100.5C377,100.224 376.776,100 376.5,100L363.5,100Z" style="fill:white;fill-rule:nonzero;"/>
            </g>
            <g id="ICON_IMAGE_ZDEPTH" transform="matrix(-0.830339,0,0,0.830339,-2.75941,-138.156)">
                <path d="M258.5,-19C258.224,-19 258,-18.776 258,-18.5L258,-5.5C258,-5.224 258.224,-5 258.5,-5L271.5,-5C271.776,-5 272,-5.224 272,-5.5L272,-18.5C272,-18.776 271.776,-19 271.5,-19L258.5,-19ZM260,-17L266,-17L266,-13L270,-13L270,-7L264,-7L264,-11L260,-11L260,-17Z" style="fill:white;fill-rule:nonzero;"/>
                <path d="M260,-17L266,-17L266,-13L264,-13L264,-11L260,-11L260,-17Z" style="fill:white;fill-opacity:0.5;fill-rule:nonzero;"/>
            </g>
            <g id="ICON_COLOR" transform="matrix(0.911022,0,0,0.911022,-209.291,-680.942)">
                <g transform="matrix(1,0,0,1,-0.99998,0)">
                    <path d="M48.5,578C48.224,578 48,578.224 48,578.5L47.992,589C47.992,590.517 49.211,592 50.977,592C52.742,592 53.992,590.525 53.992,589L54,578.5C54,578.224 53.776,578 53.5,578L48.5,578ZM51,588C51.546,588 52,588.454 52,589C52,589.546 51.546,590 51,590C50.454,590 50,589.546 50,589C50,588.454 50.454,588 51,588Z" style="fill:white;fill-rule:nonzero;"/>
                </g>
                <path d="M58.492,586C58.36,586 58.232,586.053 58.139,586.146L53.389,590.896C53.295,590.99 53.242,591.117 53.242,591.25L53.242,591.5C53.242,591.776 53.466,592 53.742,592L60.5,592C60.776,592 61,591.776 61,591.5L61,586.5C61,586.224 60.776,586 60.5,586L58.492,586Z" style="fill:white;fill-opacity:0.5;fill-rule:nonzero;"/>
                <path d="M56.486,579C56.356,579.002 56.231,579.054 56.139,579.146L54.139,581.146C54.045,581.24 53.992,581.367 53.992,581.5L53.992,587.5C53.992,587.945 54.531,588.168 54.846,587.854L59.846,582.854C60.041,582.658 60.041,582.342 59.846,582.146L56.846,579.146C56.751,579.051 56.621,578.998 56.486,579Z" style="fill:white;fill-opacity:0.75;fill-rule:nonzero;"/>
            </g>
            <g transform="matrix(0.984061,0,0,0.984061,-172.423,-640.9)">
                <g id="ICON_GROUP_UVS">
                    <path d="M51.5,515C51.367,515 51.24,515.053 51.146,515.146L48.146,518.146C48.053,518.24 48,518.367 48,518.5L48,528.5C48,528.774 48.226,529 48.5,529L58.5,529C58.633,529 58.76,528.947 58.854,528.854L61.854,525.854C61.947,525.76 62,525.633 62,525.5L62,515.5C62,515.226 61.774,515 61.5,515L51.5,515ZM51.707,516L61,516L61,525.293L58.293,528L49,528L49,518.707L51.707,516ZM52,519L52,521L54,521L54,519L52,519ZM54,521L54,523L56,523L56,521L54,521ZM56,521L58,521L58,519L56,519L56,521ZM56,523L56,525L58,525L58,523L56,523ZM56,525L54,525L54,527L56,527L56,525ZM54,525L54,523L52,523L52,525L54,525ZM52,525L50,525L50,527L52,527L52,525ZM52,523L52,521L50,521L50,523L52,523Z" style="fill:white;fill-rule:nonzero;"/>
                </g>
            </g>
            <g id="ICON_GROUP_VCOL" transform="matrix(-0.983512,0,0,0.983512,369.765,-599.318)">
                <path d="M478.492,473.008C478.218,473.008 477.992,473.234 477.992,473.508L477.992,476.516C477.992,476.79 478.218,477.016 478.492,477.016C479.495,477.016 480.497,477.016 481.5,477.016C481.774,477.016 482,476.79 482,476.516L482,473.508C482,473.234 481.774,473.008 481.5,473.008L478.492,473.008ZM478.992,474.008L481,474.008L481,476.016C480.331,476.016 479.661,476.016 478.992,476.016L478.992,474.008ZM478.5,478L481.496,478.006C481.771,478.007 481.996,478.229 481.996,478.504L482,484.963C482,485.986 481.194,487 480,487C478.805,487 478.004,485.978 478.004,484.957L478,478.5C478,478.224 478.223,478 478.5,478ZM480,484C479.451,484 479,484.451 479,485C479,485 479,485 479,485C479,485.549 479.451,486 480,486C480.548,486 481,485.549 481,485C481,485 481,485 481,485C481,484.451 480.548,484 480,484Z" style="fill:white;fill-rule:nonzero;"/>
                <path d="M469.492,474.008C469.218,474.008 468.992,474.234 468.992,474.508L468.992,477.516C468.992,477.79 469.218,478.016 469.492,478.016C470.495,478.016 471.497,478.016 472.5,478.016C472.774,478.016 473,477.79 473,477.516L473,474.508C473,474.234 472.774,474.008 472.5,474.008L469.492,474.008ZM469.992,475.008L472,475.008L472,477.016C471.331,477.016 470.661,477.016 469.992,477.016L469.992,475.008ZM475.507,478C475.637,478.002 475.761,478.055 475.853,478.147L476.854,479.146C476.948,479.24 477.001,479.368 477,479.5L477,483.501C477,483.946 476.461,484.169 476.146,483.854L473.147,480.853C472.952,480.658 472.952,480.342 473.147,480.147L475.147,478.147C475.242,478.051 475.372,477.998 475.507,478Z" style="fill:white;fill-opacity:0.75;fill-rule:nonzero;"/>
                <path d="M468.492,483.008C468.218,483.008 467.992,483.234 467.992,483.508L467.992,486.516C467.992,486.79 468.218,487.016 468.492,487.016C469.495,487.016 470.497,487.016 471.5,487.016C471.774,487.016 472,486.79 472,486.516L472,483.508C472,483.234 471.774,483.008 471.5,483.008L468.492,483.008ZM468.992,484.008L471,484.008L471,486.016C470.331,486.016 469.661,486.016 468.992,486.016L468.992,484.008ZM473.514,483.001C473.642,483.005 473.763,483.056 473.853,483.146L476.854,486.147C477.168,486.462 476.944,487 476.5,487L473.5,487C473.224,487 473,486.776 473,486.5L473,483.501C473,483.219 473.233,482.993 473.514,483.001Z" style="fill:white;fill-opacity:0.5;fill-rule:nonzero;"/>
            </g>
            <g transform="matrix(0.98601,0,0,0.98601,-504.204,-600.518)">
                <g id="ICON_GREASEPENCIL">
                    <path d="M353.139,473.033C352.643,472.988 352.1,473.193 351.646,473.646L350.896,474.396C350.701,474.592 350.701,474.908 350.896,475.104L353.896,478.104C354.092,478.299 354.408,478.299 354.604,478.104L355.354,477.354C355.807,476.9 356.012,476.357 355.967,475.861C355.922,475.365 355.662,474.955 355.354,474.646L354.354,473.646C354.045,473.338 353.635,473.078 353.139,473.033ZM349.742,475.75C349.612,475.752 349.488,475.805 349.397,475.896L343.147,482.146C343.083,482.211 343.037,482.291 343.016,482.379L342.016,486.379C341.925,486.744 342.256,487.075 342.621,486.984L346.621,485.984C346.709,485.963 346.789,485.917 346.854,485.854L353.104,479.604C353.299,479.408 353.299,479.092 353.104,478.896L350.104,475.896C350.008,475.801 349.878,475.748 349.742,475.75L349.742,475.75Z" style="fill:white;fill-rule:nonzero;"/>
                </g>
            </g>
            <g id="ICON_RENDER_STILL" transform="matrix(0.984061,0,0,0.984061,-614.69,-812.361)">
                <g transform="matrix(1,0,0,1,70,363)">
                    <path d="M301.5,305C300.678,305 300,305.678 300,306.5L300,311.5C300,312.322 301,313 301.5,313L302,313L302,310L301.5,310C300.824,310.01 300.824,308.99 301.5,309L312.5,309C313.176,308.99 313.176,310.01 312.5,310L312,310L312,313L312.5,313C313.322,313 314,312.322 314,311.5L314,306.5C314,305.678 313.322,305 312.5,305L301.5,305Z" style="fill:white;fill-rule:nonzero;"/>
                </g>
                <g transform="matrix(1,0,0,1,238,111)">
                    <path d="M135,562L135,570.5C135,570.776 135.224,571 135.5,571L142.5,571C142.776,571 143,570.776 143,570.5L143,562L135,562ZM141,564C141.546,564 142,564.454 142,565C142,565.546 141.546,566 141,566C140.454,566 140,565.546 140,565C140,564.454 140.454,564 141,564ZM138.492,566C138.662,565.997 138.822,566.081 138.916,566.223L140.916,569.223C141.137,569.555 140.899,570 140.5,570L136.5,570C136.101,570 135.863,569.555 136.084,569.223L138.084,566.223C138.175,566.086 138.328,566.003 138.492,566Z" style="fill:white;fill-opacity:0.7;fill-rule:nonzero;"/>
                </g>
            </g>
            <g id="ICON_FILE_IMAGE" transform="matrix(-0.984048,0,0,0.984048,1138.57,131.949)">
                <g opacity="0.99">
                    <path d="M1258.48,-286C1258.31,-285.992 1258.15,-285.897 1258.07,-285.748L1254.07,-278.748C1253.88,-278.415 1254.12,-278 1254.5,-278L1262.5,-278C1262.88,-278 1263.12,-278.415 1262.93,-278.748L1258.93,-285.748C1258.84,-285.911 1258.66,-286.008 1258.48,-286Z" style="fill:white;fill-rule:nonzero;"/>
                    <path d="M1253.5,-289C1252.68,-289 1252,-288.323 1252,-287.5C1252,-286.677 1252.68,-286 1253.5,-286C1254.32,-286 1255,-286.677 1255,-287.5C1255,-288.323 1254.32,-289 1253.5,-289Z" style="fill:white;fill-rule:nonzero;"/>
                    <g transform="matrix(-1,0,0,1,1290,-303)">
                        <path d="M27.5,11C27.226,11 27,11.226 27,11.5L27,22.352L28,20.602L28,12L40,12L40,24L36.9,24C37.023,24.34 37.017,24.687 36.904,25L40.5,25C40.774,25 41,24.774 41,24.5L41,11.5C41,11.226 40.774,11 40.5,11L27.5,11Z" style="fill:white;"/>
                    </g>
                </g>
            </g>
            <g id="ICON_TEXTURE" transform="matrix(0.984061,0,0,0.984061,-193.323,-682.231)">
                <path d="M49,558L49,561L52,561L52,558L49,558ZM52,561L52,564L55,564L55,561L52,561ZM55,561L58,561L58,558L55,558L55,561ZM58,561L58,564L61,564L61,561L58,561ZM58,564L55,564L55,567L58,567L58,564ZM58,567L58,570L61,570L61,567L58,567ZM55,567L52,567L52,570L55,570L55,567ZM52,567L52,564L49,564L49,567L52,567Z" style="fill:white;fill-rule:nonzero;"/>
                <path d="M48.5,557C48.226,557 48,557.226 48,557.5L48,570.5C48,570.774 48.226,571 48.5,571L61.5,571C61.774,571 62,570.774 62,570.5L62,557.5C62,557.226 61.774,557 61.5,557L48.5,557ZM49,558L61,558L61,570L49,570L49,558Z" style="fill:white;fill-opacity:0.8;fill-rule:nonzero;"/>
            </g>
            <g id="path21" serif:id="path2" transform="matrix(0.984366,0,0,0.984366,-255.811,-765.191)">
                <g id="ICON_CANCEL">
                    <path id="path22" serif:id="path2" d="M76,620C72.14,620 69,623.14 69,627C69,630.86 72.14,634 76,634C79.86,634 83,630.86 83,627C83,623.14 79.86,620 76,620ZM78.99,622.986C78.998,622.986 79.006,622.986 79.014,622.986C79.562,622.986 80.014,623.438 80.014,623.986C80.014,624.258 79.903,624.519 79.707,624.707L77.414,627L79.707,629.293C79.903,629.481 80.015,629.742 80.015,630.014C80.015,630.563 79.563,631.015 79.014,631.015C78.742,631.015 78.481,630.903 78.293,630.707L76,628.414L73.707,630.707C73.519,630.903 73.258,631.015 72.986,631.015C72.437,631.015 71.985,630.563 71.985,630.014C71.985,629.742 72.097,629.481 72.293,629.293L74.586,627L72.293,624.707C72.1,624.519 71.99,624.26 71.99,623.99C71.99,623.442 72.442,622.99 72.99,622.99C73.26,622.99 73.519,623.1 73.707,623.293L76,625.586L78.293,623.293C78.476,623.103 78.727,622.993 78.99,622.986Z" style="fill:white;"/>
                </g>
            </g>
            <g id="ICON_IMAGE_RGB_ALPHA" transform="matrix(0.984051,0,0,0.984051,-442.713,-186.498)">
                <path d="M174.481,31.999C174.402,32.003 174.326,32.027 174.257,32.065C174.252,32.068 174.248,32.071 174.243,32.074C174.173,32.116 174.113,32.174 174.07,32.247C174.069,32.249 174.068,32.251 174.066,32.253C174.026,32.324 174,32.406 174,32.5L174,45.5C174,45.588 174.025,45.67 174.065,45.741C174.067,45.746 174.07,45.751 174.072,45.755C174.115,45.826 174.174,45.885 174.245,45.928C174.249,45.93 174.254,45.933 174.259,45.935C174.33,45.975 174.412,46 174.5,46L187.5,46C187.69,46 187.835,45.9 187.92,45.763C187.926,45.753 187.932,45.743 187.938,45.732C187.976,45.661 187.999,45.582 188,45.5C188,45.5 188,45.5 188,45.5L188,45.499C188,45.492 188,45.484 188,45.477L188,32.5C188,32.226 187.774,32 187.5,32L174.5,32C174.5,32 174.499,32 174.499,32C174.493,32 174.487,31.999 174.481,31.999ZM175.707,33L187,33L187,44.293L175.707,33ZM178.496,38C178.687,37.999 178.862,38.106 178.947,38.277L181.947,44.277C182.112,44.61 181.871,45 181.5,45L175.5,45C175.129,45 174.888,44.61 175.053,44.277L178.053,38.277C178.137,38.109 178.308,38.002 178.496,38Z" style="fill:white;fill-rule:nonzero;"/>
            </g>
            <g transform="matrix(0.947516,0,0,0.947516,-574.386,-661.995)">
                <g id="ICON_MODIFIER">
                    <path d="M351.482,557.016L350.514,557.031C350.495,557.031 350.476,557.033 350.457,557.035C347.874,557.366 345.877,559.636 346.006,562.25C346.035,562.835 346.238,563.349 346.447,563.846L342.662,567.631C342.325,567.938 342.061,568.36 342.022,568.861C341.982,569.363 342.194,569.901 342.647,570.354C343.1,570.807 343.642,571.012 344.139,570.967C344.635,570.922 345.045,570.663 345.354,570.354L349.16,566.547C349.688,566.773 350.23,566.98 350.854,566.998C353.457,567.074 355.688,565.124 355.967,562.535C355.968,562.522 355.969,562.508 355.969,562.494L355.99,561.527C356.001,561.076 355.456,560.843 355.137,561.162L352.293,564L350.707,564L349,562.293L349,560.707L351.844,557.869C352.161,557.551 351.932,557.009 351.482,557.016Z" style="fill:white;fill-rule:nonzero;"/>
                </g>
            </g>
            <g id="ICON_INFO" transform="matrix(0.0482677,0,0,0.0482677,-265.817,-157.204)">
                <path d="M3922.24,57.663C3994.29,57.663 4052.78,116.152 4052.78,188.195C4052.78,260.238 3994.29,318.727 3922.24,318.727C3850.2,318.727 3791.71,260.238 3791.71,188.195C3791.71,116.152 3850.2,57.663 3922.24,57.663ZM3900.89,102.794L3900.89,145.494L3943.6,145.494L3943.6,102.794L3900.89,102.794ZM3879.55,166.845L3879.55,188.195L3900.89,188.195L3900.89,252.246L3879.55,252.246L3879.55,273.597L3964.95,273.597L3964.95,252.246L3943.6,252.246L3943.6,166.845L3879.55,166.845Z" style="fill:rgb(253,253,253);"/>
            </g>
            <g transform="matrix(0.728934,0,0,0.728934,-222.993,-488.945)">
                <g id="ICON_GROUP_UVS_SMALL">
                    <path d="M51.5,515C51.367,515 51.24,515.053 51.146,515.146L48.146,518.146C48.053,518.24 48,518.367 48,518.5L48,528.5C48,528.774 48.226,529 48.5,529L58.5,529C58.633,529 58.76,528.947 58.854,528.854L61.854,525.854C61.947,525.76 62,525.633 62,525.5L62,515.5C62,515.226 61.774,515 61.5,515L51.5,515ZM51.707,516L61,516L61,525.293L58.293,528L49,528L49,518.707L51.707,516ZM52,519L52,521L54,521L54,519L52,519ZM54,521L54,523L56,523L56,521L54,521ZM56,521L58,521L58,519L56,519L56,521ZM56,523L56,525L58,525L58,523L56,523ZM56,525L54,525L54,527L56,527L56,525ZM54,525L54,523L52,523L52,525L54,525ZM52,525L50,525L50,527L52,527L52,525ZM52,523L52,521L50,521L50,523L52,523Z" style="fill:white;fill-rule:nonzero;"/>
                </g>
            </g>
            <g id="ICON_CHANNELS_SMALL" transform="matrix(0.688604,0,0,0.688604,-110.245,-20.7051)">
                <g transform="matrix(0.0510254,0,0,0.0510254,-274.579,-159.219)">
                    <circle cx="3826.32" cy="539.523" r="64.202" style="fill:white;"/>
                </g>
                <g transform="matrix(0.0510254,0,0,0.0510254,-267.605,-154.793)">
                    <circle cx="3826.32" cy="539.523" r="64.202" style="fill:white;"/>
                </g>
                <g transform="matrix(0.0510254,0,0,0.0510254,-274.621,-150.951)">
                    <circle cx="3826.32" cy="539.523" r="64.202" style="fill:white;"/>
                </g>
            </g>
            <g id="ICON_FILE_IMAGE_SMALL" transform="matrix(-0.728925,0,0,0.728925,773.831,99.2323)">
                <g opacity="0.99">
                    <path d="M1258.48,-286C1258.31,-285.992 1258.15,-285.897 1258.07,-285.748L1254.07,-278.748C1253.88,-278.415 1254.12,-278 1254.5,-278L1262.5,-278C1262.88,-278 1263.12,-278.415 1262.93,-278.748L1258.93,-285.748C1258.84,-285.911 1258.66,-286.008 1258.48,-286Z" style="fill:white;fill-rule:nonzero;"/>
                    <path d="M1253.5,-289C1252.68,-289 1252,-288.323 1252,-287.5C1252,-286.677 1252.68,-286 1253.5,-286C1254.32,-286 1255,-286.677 1255,-287.5C1255,-288.323 1254.32,-289 1253.5,-289Z" style="fill:white;fill-rule:nonzero;"/>
                    <g transform="matrix(-1,0,0,1,1290,-303)">
                        <path d="M27.5,11C27.226,11 27,11.226 27,11.5L27,22.352L28,20.602L28,12L40,12L40,24L36.9,24C37.023,24.34 37.017,24.687 36.904,25L40.5,25C40.774,25 41,24.774 41,24.5L41,11.5C41,11.226 40.774,11 40.5,11L27.5,11Z" style="fill:white;"/>
                    </g>
                </g>
            </g>
            <g id="ICON_TEXTURE_SMALL" transform="matrix(0.728934,0,0,0.728934,-160.003,-519.63)">
                <path d="M49,558L49,561L52,561L52,558L49,558ZM52,561L52,564L55,564L55,561L52,561ZM55,561L58,561L58,558L55,558L55,561ZM58,561L58,564L61,564L61,561L58,561ZM58,564L55,564L55,567L58,567L58,564ZM58,567L58,570L61,570L61,567L58,567ZM55,567L52,567L52,570L55,570L55,567ZM52,567L52,564L49,564L49,567L52,567Z" style="fill:white;fill-rule:nonzero;"/>
                <path d="M48.5,557C48.226,557 48,557.226 48,557.5L48,570.5C48,570.774 48.226,571 48.5,571L61.5,571C61.774,571 62,570.774 62,570.5L62,557.5C62,557.226 61.774,557 61.5,557L48.5,557ZM49,558L61,558L61,570L49,570L49,558Z" style="fill:white;fill-opacity:0.8;fill-rule:nonzero;"/>
            </g>
            <g id="ICON_MOD_MASK_SMALL" transform="matrix(0.728934,0,0,0.728934,-353.974,-228.716)">
                <path d="M342.5,158C342.224,158 342,158.224 342,158.5L342,171.5C342,171.776 342.224,172 342.5,172L355.5,172C355.776,172 356,171.776 356,171.5L356,158.5C356,158.224 355.776,158 355.5,158L342.5,158ZM349,161C351.202,161 353,162.798 353,165C353,167.202 351.202,169 349,169C346.798,169 345,167.202 345,165C345,162.798 346.798,161 349,161Z" style="fill:white;fill-rule:nonzero;"/>
            </g>
            <g id="ICON_COLOR_SMALL" transform="matrix(0.728529,0,0,0.728529,-117.465,-534.929)">
                <g transform="matrix(1,0,0,1,-0.99998,0)">
                    <path d="M48.5,578C48.224,578 48,578.224 48,578.5L47.992,589C47.992,590.517 49.211,592 50.977,592C52.742,592 53.992,590.525 53.992,589L54,578.5C54,578.224 53.776,578 53.5,578L48.5,578ZM51,588C51.546,588 52,588.454 52,589C52,589.546 51.546,590 51,590C50.454,590 50,589.546 50,589C50,588.454 50.454,588 51,588Z" style="fill:white;fill-rule:nonzero;"/>
                </g>
                <path d="M58.492,586C58.36,586 58.232,586.053 58.139,586.146L53.389,590.896C53.295,590.99 53.242,591.117 53.242,591.25L53.242,591.5C53.242,591.776 53.466,592 53.742,592L60.5,592C60.776,592 61,591.776 61,591.5L61,586.5C61,586.224 60.776,586 60.5,586L58.492,586Z" style="fill:white;fill-opacity:0.5;fill-rule:nonzero;"/>
                <path d="M56.486,579C56.356,579.002 56.231,579.054 56.139,579.146L54.139,581.146C54.045,581.24 53.992,581.367 53.992,581.5L53.992,587.5C53.992,587.945 54.531,588.168 54.846,587.854L59.846,582.854C60.041,582.658 60.041,582.342 59.846,582.146L56.846,579.146C56.751,579.051 56.621,578.998 56.486,579Z" style="fill:white;fill-opacity:0.75;fill-rule:nonzero;"/>
            </g>
            <g id="ICON_LAMP_SMALL" transform="matrix(0.748372,0,0,0.748372,-1036.82,-1257.69)">
                <path d="M1028,1556C1024.72,1556 1022,1558.44 1022,1561.5C1022,1563.21 1022.9,1564.65 1024.15,1565.86L1025.15,1566.85C1025.23,1566.94 1025.33,1566.99 1025.45,1567C1025.19,1567.03 1025,1567.24 1025,1567.5C1025,1567.77 1025.22,1568 1025.5,1568C1025.5,1568 1025.5,1568 1025.5,1568L1030.5,1568C1030.77,1568 1031,1567.77 1031,1567.5C1031,1567.24 1030.8,1567.03 1030.55,1567C1030.66,1566.99 1030.77,1566.94 1030.85,1566.85L1031.85,1565.86C1033.06,1564.66 1034,1563.2 1034,1561.5C1034,1558.44 1031.28,1556 1028,1556L1028,1556ZM1028,1557C1030.79,1557 1033,1559.04 1033,1561.5C1033,1562.83 1032.26,1564.05 1031.15,1565.14L1030.15,1566.14C1030.05,1566.24 1030,1566.37 1030,1566.5C1030,1566.75 1030.18,1566.96 1030.43,1567L1025.57,1567C1025.82,1566.97 1026.01,1566.75 1026.01,1566.5C1026.01,1566.37 1025.95,1566.24 1025.86,1566.14C1025.86,1566.14 1024.85,1565.14 1024.85,1565.13C1023.71,1564.03 1023,1562.85 1023,1561.49C1023,1559.03 1025.21,1556.99 1028,1556.99L1028,1557ZM1025.5,1569C1025.5,1569 1025.5,1569 1025.49,1569C1025.22,1569 1024.99,1569.23 1024.99,1569.5C1024.99,1569.77 1025.22,1570 1025.49,1570C1025.5,1570 1025.5,1570 1025.5,1570L1027,1570L1027,1570.5C1027,1570.77 1027.23,1571 1027.5,1571L1028.5,1571C1028.77,1571 1029,1570.77 1029,1570.5L1029,1570L1030.5,1570C1030.5,1570 1030.51,1570 1030.51,1570C1030.78,1570 1031.01,1569.77 1031.01,1569.5C1031.01,1569.23 1030.78,1569 1030.51,1569C1030.51,1569 1030.5,1569 1030.5,1569L1025.5,1569Z" style="fill:white;fill-rule:nonzero;"/>
                <path d="M1025.49,1561.01C1025.22,1561.01 1025.01,1561.24 1025.01,1561.51C1025.01,1561.63 1025.06,1561.76 1025.15,1561.85L1026,1562.71L1026,1564.25C1026,1564.25 1026,1564.26 1026,1564.26C1026,1564.53 1026.23,1564.76 1026.5,1564.76C1026.77,1564.76 1027,1564.53 1027,1564.26C1027,1564.26 1027,1564.25 1027,1564.25L1027,1563L1029,1563L1029,1564.25C1029,1564.25 1029,1564.26 1029,1564.26C1029,1564.53 1029.23,1564.76 1029.5,1564.76C1029.77,1564.76 1030,1564.53 1030,1564.26C1030,1564.26 1030,1564.25 1030,1564.25L1030,1562.71L1030.85,1561.85C1030.94,1561.76 1030.99,1561.64 1030.99,1561.51C1030.99,1561.23 1030.77,1561.01 1030.49,1561.01C1030.36,1561.01 1030.24,1561.06 1030.15,1561.15L1029.29,1562L1026.71,1562L1025.85,1561.15C1025.76,1561.05 1025.62,1561 1025.49,1561.01Z" style="fill:white;fill-opacity:0.6;fill-rule:nonzero;"/>
            </g>
            <g id="ICON_OBJECT_DATAMODE_SMALL" transform="matrix(0.728934,0,0,0.728934,-270.769,-345.193)">
                <path d="M27.5,347C27.226,347 27,347.226 27,347.5L27,351L28,351L28,348L31,348L31,347L27.5,347ZM37,347L37,348L40,348L40,351L41,351L41,347.5C41,347.226 40.774,347 40.5,347L37,347ZM27,357L27,360.5C27,360.774 27.226,361 27.5,361L31,361L31,360L28,360L28,357L27,357ZM40,357L40,360L37,360L37,361L40.5,361C40.774,361 41,360.774 41,360.5L41,357L40,357Z" style="fill:white;fill-opacity:0.6;fill-rule:nonzero;"/>
                <path d="M30.5,350C30.224,350 30,350.224 30,350.5L30,357.5C30,357.776 30.224,358 30.5,358L37.5,358C37.776,358 38,357.776 38,357.5L38,350.5C38,350.224 37.776,350 37.5,350L30.5,350Z" style="fill:white;fill-rule:nonzero;"/>
            </g>
            <g id="ICON_GROUP_VCOL_SMALL" transform="matrix(-0.728528,0,0,0.728528,120.963,-437.004)">
                <path d="M478.492,473.008C478.218,473.008 477.992,473.234 477.992,473.508L477.992,476.516C477.992,476.79 478.218,477.016 478.492,477.016C479.495,477.016 480.497,477.016 481.5,477.016C481.774,477.016 482,476.79 482,476.516L482,473.508C482,473.234 481.774,473.008 481.5,473.008L478.492,473.008ZM478.992,474.008L481,474.008L481,476.016C480.331,476.016 479.661,476.016 478.992,476.016L478.992,474.008ZM478.5,478L481.496,478.006C481.771,478.007 481.996,478.229 481.996,478.504L482,484.963C482,485.986 481.194,487 480,487C478.805,487 478.004,485.978 478.004,484.957L478,478.5C478,478.224 478.223,478 478.5,478ZM480,484C479.451,484 479,484.451 479,485C479,485 479,485 479,485C479,485.549 479.451,486 480,486C480.548,486 481,485.549 481,485C481,485 481,485 481,485C481,484.451 480.548,484 480,484Z" style="fill:white;fill-rule:nonzero;"/>
                <path d="M469.492,474.008C469.218,474.008 468.992,474.234 468.992,474.508L468.992,477.516C468.992,477.79 469.218,478.016 469.492,478.016C470.495,478.016 471.497,478.016 472.5,478.016C472.774,478.016 473,477.79 473,477.516L473,474.508C473,474.234 472.774,474.008 472.5,474.008L469.492,474.008ZM469.992,475.008L472,475.008L472,477.016C471.331,477.016 470.661,477.016 469.992,477.016L469.992,475.008ZM475.507,478C475.637,478.002 475.761,478.055 475.853,478.147L476.854,479.146C476.948,479.24 477.001,479.368 477,479.5L477,483.501C477,483.946 476.461,484.169 476.146,483.854L473.147,480.853C472.952,480.658 472.952,480.342 473.147,480.147L475.147,478.147C475.242,478.051 475.372,477.998 475.507,478Z" style="fill:white;fill-opacity:0.75;fill-rule:nonzero;"/>
                <path d="M468.492,483.008C468.218,483.008 467.992,483.234 467.992,483.508L467.992,486.516C467.992,486.79 468.218,487.016 468.492,487.016C469.495,487.016 470.497,487.016 471.5,487.016C471.774,487.016 472,486.79 472,486.516L472,483.508C472,483.234 471.774,483.008 471.5,483.008L468.492,483.008ZM468.992,484.008L471,484.008L471,486.016C470.331,486.016 469.661,486.016 468.992,486.016L468.992,484.008ZM473.514,483.001C473.642,483.005 473.763,483.056 473.853,483.146L476.854,486.147C477.168,486.462 476.944,487 476.5,487L473.5,487C473.224,487 473,486.776 473,486.5L473,483.501C473,483.219 473.233,482.993 473.514,483.001Z" style="fill:white;fill-opacity:0.5;fill-rule:nonzero;"/>
            </g>
            <g id="ICON_INFO_SMALL" transform="matrix(0.0387132,0,0,0.0387132,-356.017,-92.6476)">
                <path d="M3922.24,57.663C3994.29,57.663 4052.78,116.152 4052.78,188.195C4052.78,260.238 3994.29,318.727 3922.24,318.727C3850.2,318.727 3791.71,260.238 3791.71,188.195C3791.71,116.152 3850.2,57.663 3922.24,57.663ZM3900.89,102.794L3900.89,145.494L3943.6,145.494L3943.6,102.794L3900.89,102.794ZM3879.55,166.845L3879.55,188.195L3900.89,188.195L3900.89,252.246L3879.55,252.246L3879.55,273.597L3964.95,273.597L3964.95,252.246L3943.6,252.246L3943.6,166.845L3879.55,166.845Z" style="fill:rgb(253,253,253);"/>
            </g>
            <g id="ICON_EDGE_DETECT_SMALL" transform="matrix(0.00728934,0,0,0.00728934,-168.217,-92.9819)">
                <g id="path11" serif:id="path1" transform="matrix(100,0,0,100,14500,-51500)">
                    <path d="M-141,519.5L-141,521L-140,521L-140,519.5L-141,519.5ZM-141,522L-141,524L-140,524L-140,522L-141,522ZM-141,525L-141,526.279L-143.586,528.631L-142.914,529.369L-140.311,527.002L-139,527L-139,526L-140,526L-140,525L-141,525ZM-137.992,526L-137.992,527L-135.992,527L-135.992,526L-137.992,526ZM-135,526L-135,527L-133.5,527L-133.5,526L-135,526Z" style="fill:white;fill-opacity:0.6;fill-rule:nonzero;"/>
                </g>
                <g id="path23" serif:id="path2" transform="matrix(100,0,0,100,-29900,-24100)">
                    <path d="M303.5,242C303.367,242 303.24,242.053 303.146,242.146L300.146,245.146C300.053,245.24 300,245.367 300,245.5L300,255.5C300,255.774 300.226,256 300.5,256L310.5,256C310.633,256 310.76,255.947 310.854,255.854L313.854,252.854C313.947,252.76 314,252.633 314,252.5L314,242.5C314,242.226 313.774,242 313.5,242L303.5,242ZM303.707,243L312.293,243L310.293,245L301.707,245L303.707,243ZM313,243.707L313,252.293L311,254.293L311,245.707L313,243.707ZM301,246L310,246L310,255L301,255L301,246Z" style="fill:white;fill-rule:nonzero;"/>
                </g>
            </g>
            <g id="ICON_RENDER_STILL_SMALL" transform="matrix(0.728934,0,0,0.728934,-374.493,-579.237)">
                <g transform="matrix(1,0,0,1,70,363)">
                    <path d="M301.5,305C300.678,305 300,305.678 300,306.5L300,311.5C300,312.322 301,313 301.5,313L302,313L302,310L301.5,310C300.824,310.01 300.824,308.99 301.5,309L312.5,309C313.176,308.99 313.176,310.01 312.5,310L312,310L312,313L312.5,313C313.322,313 314,312.322 314,311.5L314,306.5C314,305.678 313.322,305 312.5,305L301.5,305Z" style="fill:white;fill-rule:nonzero;"/>
                </g>
                <g transform="matrix(1,0,0,1,238,111)">
                    <path d="M135,562L135,570.5C135,570.776 135.224,571 135.5,571L142.5,571C142.776,571 143,570.776 143,570.5L143,562L135,562ZM141,564C141.546,564 142,564.454 142,565C142,565.546 141.546,566 141,566C140.454,566 140,565.546 140,565C140,564.454 140.454,564 141,564ZM138.492,566C138.662,565.997 138.822,566.081 138.916,566.223L140.916,569.223C141.137,569.555 140.899,570 140.5,570L136.5,570C136.101,570 135.863,569.555 136.084,569.223L138.084,566.223C138.175,566.086 138.328,566.003 138.492,566Z" style="fill:white;fill-opacity:0.7;fill-rule:nonzero;"/>
                </g>
            </g>
            <g id="ICON_IMAGE_RGB_ALPHA_SMALL" transform="matrix(0.728894,0,0,0.728894,-210.715,-115.633)">
                <path d="M174.481,31.999C174.402,32.003 174.326,32.027 174.257,32.065C174.252,32.068 174.248,32.071 174.243,32.074C174.173,32.116 174.113,32.174 174.07,32.247C174.069,32.249 174.068,32.251 174.066,32.253C174.026,32.324 174,32.406 174,32.5L174,45.5C174,45.588 174.025,45.67 174.065,45.741C174.067,45.746 174.07,45.751 174.072,45.755C174.115,45.826 174.174,45.885 174.245,45.928C174.249,45.93 174.254,45.933 174.259,45.935C174.33,45.975 174.412,46 174.5,46L187.5,46C187.69,46 187.835,45.9 187.92,45.763C187.926,45.753 187.932,45.743 187.938,45.732C187.976,45.661 187.999,45.582 188,45.5C188,45.5 188,45.5 188,45.5L188,45.499C188,45.492 188,45.484 188,45.477L188,32.5C188,32.226 187.774,32 187.5,32L174.5,32C174.5,32 174.499,32 174.499,32C174.493,32 174.487,31.999 174.481,31.999ZM175.707,33L187,33L187,44.293L175.707,33ZM178.496,38C178.687,37.999 178.862,38.106 178.947,38.277L181.947,44.277C182.112,44.61 181.871,45 181.5,45L175.5,45C175.129,45 174.888,44.61 175.053,44.277L178.053,38.277C178.137,38.109 178.308,38.002 178.496,38Z" style="fill:white;fill-rule:nonzero;"/>
            </g>
            <g id="ICON_TRIA_RIGHT" transform="matrix(0.884899,0,0,0.884899,-346.261,-511.193)">
                <path d="M94.506,623C94.227,623 94,623.222 94,623.5L94,630.5C93.999,630.905 94.455,631.143 94.787,630.91L99.787,627.41C100.073,627.211 100.073,626.789 99.787,626.59L94.787,623.09C94.705,623.032 94.607,623.001 94.506,623L94.506,623Z" style="fill:white;stroke:rgb(37,37,37);stroke-width:1.15px;stroke-linejoin:round;stroke-miterlimit:2;"/>
            </g>
            <g id="path24" serif:id="path2" transform="matrix(0.875345,-9.62965e-33,9.62965e-33,0.875345,-342.966,-504.913)">
                <g id="ICON_TRIA_DOWN">
                    <path id="path25" serif:id="path2" d="M113.999,624.506C113.999,624.227 114.221,624 114.499,624L121.499,624C121.904,623.999 122.142,624.455 121.909,624.787L118.409,629.787C118.21,630.073 117.788,630.073 117.589,629.787L114.089,624.787C114.031,624.705 114,624.607 113.999,624.506L113.999,624.506Z" style="fill:white;stroke:rgb(37,37,37);stroke-width:1.17px;stroke-linejoin:round;stroke-miterlimit:2;"/>
                </g>
            </g>
            <g transform="matrix(0.721462,0,0,0.721462,-304.403,-393.061)">
                <g id="ICON_ADD">
                    <path d="M118.514,601C118.512,601 118.51,601 118.508,601C118.234,601 118.008,601.226 118.008,601.5C118.008,601.502 118.008,601.504 118.008,601.506L118.008,605.008L114.506,605.008C114.495,605.007 114.485,605.007 114.474,605.007C114.2,605.007 113.974,605.233 113.974,605.507C113.974,605.781 114.2,606.007 114.474,606.007C114.485,606.007 114.495,606.007 114.506,606.006L118.008,606.006L118.008,609.508C118.007,609.518 118.007,609.529 118.007,609.54C118.007,609.814 118.233,610.04 118.507,610.04C118.781,610.04 119.007,609.814 119.007,609.54C119.007,609.529 119.007,609.518 119.006,609.508L119.006,606.006L122.508,606.006C122.518,606.007 122.529,606.007 122.54,606.007C122.814,606.007 123.04,605.781 123.04,605.507C123.04,605.233 122.814,605.007 122.54,605.007C122.529,605.007 122.518,605.007 122.508,605.008L119.006,605.008L119.006,601.506C119.009,601.232 118.787,601.004 118.514,601Z" style="fill:white;fill-rule:nonzero;"/>
                    <path d="M116.593,601.522L116.593,601.5L116.633,601.113L116.746,600.752L117.155,600.147L117.76,599.738L118.121,599.625L118.508,599.585C118.508,599.585 118.534,599.586 118.536,599.586L118.921,599.631L119.28,599.749L119.877,600.166L120.277,600.774L120.385,601.136C120.385,601.136 120.42,601.522 120.42,601.506C120.42,601.506 120.42,603.593 120.42,603.593L122.508,603.593L122.54,603.592L122.927,603.632L123.288,603.745L123.893,604.154L124.302,604.759L124.415,605.12L124.454,605.507L124.415,605.894L124.302,606.255L123.893,606.86L123.288,607.269L122.927,607.382L122.54,607.421L122.508,607.42C122.508,607.42 120.42,607.42 120.42,607.42L120.42,609.508L120.421,609.54L120.382,609.927L120.269,610.288L119.86,610.893L119.255,611.302L118.894,611.415L118.507,611.454L118.12,611.415L117.759,611.302L117.154,610.893L116.745,610.288L116.632,609.927L116.592,609.54L116.593,609.508C116.593,609.508 116.593,607.42 116.593,607.42L114.506,607.42L114.474,607.421L114.087,607.382L113.726,607.269L113.121,606.86L112.712,606.255L112.599,605.894L112.559,605.507L112.599,605.12L112.712,604.759L113.121,604.154L113.726,603.745L114.087,603.632L114.474,603.592L114.506,603.593C114.506,603.593 116.593,603.593 116.593,603.593C116.593,603.593 116.593,601.539 116.593,601.522ZM118.514,601C118.512,601 118.51,601 118.508,601C118.234,601 118.008,601.226 118.008,601.5C118.008,601.502 118.008,601.504 118.008,601.506L118.008,605.008L114.506,605.008C114.495,605.007 114.485,605.007 114.474,605.007C114.2,605.007 113.974,605.233 113.974,605.507C113.974,605.781 114.2,606.007 114.474,606.007C114.485,606.007 114.495,606.007 114.506,606.006L118.008,606.006L118.008,609.508C118.007,609.518 118.007,609.529 118.007,609.54C118.007,609.814 118.233,610.04 118.507,610.04C118.781,610.04 119.007,609.814 119.007,609.54C119.007,609.529 119.007,609.518 119.006,609.508L119.006,606.006L122.508,606.006C122.518,606.007 122.529,606.007 122.54,606.007C122.814,606.007 123.04,605.781 123.04,605.507C123.04,605.233 122.814,605.007 122.54,605.007C122.529,605.007 122.518,605.007 122.508,605.008L119.006,605.008L119.006,601.506C119.009,601.232 118.787,601.004 118.514,601Z" style="fill:rgb(37,37,37);"/>
                </g>
            </g>
            <g id="ICON_R" transform="matrix(0.100883,0,0,0.100883,-278.33,-288.836)">
                <path d="M133.044,2235.97L110.025,2235.97L110.025,2273.84L94.473,2273.84L94.473,2173.04L137.385,2173.04C143.145,2173.04 148.449,2174.46 153.297,2177.29C158.145,2180.12 162.009,2183.96 164.889,2188.81C167.769,2193.66 169.209,2199.1 169.209,2205.15C169.209,2210.62 167.769,2215.71 164.889,2220.42C162.009,2225.12 158.169,2228.89 153.369,2231.72C152.215,2232.4 151.029,2233 149.814,2233.52L173.241,2273.98L154.377,2273.84L133.044,2235.97ZM110.025,2220.99L138.825,2220.99C141.609,2220.99 144.105,2220.3 146.313,2218.9C148.521,2217.51 150.249,2215.59 151.497,2213.14C152.745,2210.7 153.369,2207.98 153.369,2205.01C153.369,2201.65 152.577,2198.7 150.993,2196.15C149.409,2193.61 147.201,2191.62 144.369,2190.18C141.537,2188.74 138.345,2188.02 134.793,2188.02L110.025,2188.02L110.025,2220.99Z" style="fill:white;"/>
            </g>
            <g id="ICON_G" transform="matrix(0.100883,0,0,0.100883,-257.407,-288.894)">
                <path d="M167.769,2237.55L139.113,2237.55L139.113,2222.14L183.753,2222.14C183.945,2223.2 184.089,2224.23 184.185,2225.24C184.281,2226.25 184.353,2227.21 184.401,2228.12C184.449,2229.03 184.473,2229.92 184.473,2230.78C184.473,2237.41 183.321,2243.43 181.017,2248.86C178.713,2254.28 175.521,2258.96 171.441,2262.9C167.361,2266.83 162.609,2269.88 157.185,2272.04C151.761,2274.2 145.881,2275.28 139.545,2275.28C132.249,2275.28 125.433,2273.96 119.097,2271.32C112.761,2268.68 107.193,2265.01 102.393,2260.3C97.593,2255.6 93.873,2250.1 91.233,2243.82C88.593,2237.53 87.273,2230.74 87.273,2223.44C87.273,2216.24 88.593,2209.52 91.233,2203.28C93.873,2197.04 97.569,2191.59 102.321,2186.94C107.073,2182.28 112.617,2178.66 118.953,2176.06C125.289,2173.47 132.105,2172.18 139.401,2172.18C144.489,2172.18 149.457,2172.9 154.305,2174.34C159.153,2175.78 163.545,2177.79 167.481,2180.38C171.417,2182.98 174.633,2185.95 177.129,2189.31L167.049,2199.82C164.169,2197.04 161.217,2194.74 158.193,2192.91C155.169,2191.09 152.073,2189.7 148.905,2188.74C145.737,2187.78 142.569,2187.3 139.401,2187.3C134.217,2187.3 129.441,2188.21 125.073,2190.03C120.705,2191.86 116.865,2194.4 113.553,2197.66C110.241,2200.93 107.673,2204.74 105.849,2209.11C104.025,2213.48 103.113,2218.26 103.113,2223.44C103.113,2228.43 104.073,2233.16 105.993,2237.62C107.913,2242.09 110.577,2246 113.985,2249.36C117.393,2252.72 121.329,2255.36 125.793,2257.28C130.257,2259.2 134.985,2260.16 139.977,2260.16C143.721,2260.16 147.273,2259.61 150.633,2258.5C153.993,2257.4 156.969,2255.84 159.561,2253.82C162.153,2251.81 164.169,2249.48 165.609,2246.84C167.049,2244.2 167.769,2241.39 167.769,2238.42L167.769,2237.55Z" style="fill:white;"/>
            </g>
            <g id="ICON_B" transform="matrix(0.100883,0,0,0.100883,-236.216,-288.865)">
                <path d="M153.546,2218.66C156.228,2219.63 158.665,2220.91 160.857,2222.5C164.217,2224.95 166.833,2228 168.705,2231.65C170.577,2235.3 171.513,2239.47 171.513,2244.18C171.513,2248.98 170.769,2253.22 169.281,2256.92C167.793,2260.62 165.585,2263.71 162.657,2266.21C159.729,2268.7 156.201,2270.6 152.073,2271.9C147.945,2273.19 143.241,2273.84 137.961,2273.84L94.473,2273.84L94.473,2173.04L136.521,2173.04C142.953,2173.04 148.377,2174 152.793,2175.92C157.209,2177.84 160.545,2180.7 162.801,2184.49C165.057,2188.28 166.185,2192.91 166.185,2198.38C166.185,2203.86 164.673,2208.51 161.649,2212.35C159.527,2215.05 156.826,2217.15 153.546,2218.66ZM110.025,2258.86L137.097,2258.86C141.033,2258.86 144.369,2258.29 147.105,2257.14C149.841,2255.98 151.953,2254.28 153.441,2252.02C154.929,2249.77 155.673,2247.06 155.673,2243.89C155.673,2240.91 154.881,2238.37 153.297,2236.26C151.713,2234.14 149.481,2232.54 146.601,2231.43C143.721,2230.33 140.313,2229.78 136.377,2229.78L110.025,2229.78L110.025,2258.86ZM110.025,2214.8L135.657,2214.8C138.537,2214.8 141.105,2214.22 143.361,2213.07C145.617,2211.92 147.393,2210.34 148.689,2208.32C149.985,2206.3 150.633,2204 150.633,2201.41C150.633,2197.09 149.193,2193.78 146.313,2191.47C143.433,2189.17 139.305,2188.02 133.929,2188.02L110.025,2188.02L110.025,2214.8Z" style="fill:white;"/>
            </g>
            <g id="ICON_A" transform="matrix(0.100883,0,0,0.100883,-215.091,-288.988)">
                <path d="M109.332,2248.78L99.801,2273.84L83.961,2273.84L122.985,2173.04L138.825,2173.04L177.561,2273.84L161.001,2273.84L151.501,2248.78L109.332,2248.78ZM145.823,2233.81L137.961,2213.07C137.673,2212.4 137.121,2210.77 136.305,2208.18C135.489,2205.58 134.553,2202.7 133.497,2199.54C132.441,2196.37 131.481,2193.46 130.617,2190.82C130.584,2190.72 130.551,2190.62 130.519,2190.52C130.387,2190.92 130.252,2191.34 130.113,2191.76C129.297,2194.26 128.433,2196.9 127.521,2199.68C126.609,2202.46 125.721,2205.08 124.857,2207.53L122.697,2213.65L115.029,2233.81L145.823,2233.81Z" style="fill:white;"/>
            </g>
            <g id="ICON_R_SMALL" transform="matrix(0.0814036,0,0,0.0814036,-196.077,-248.802)">
                <path d="M133.044,2235.97L110.025,2235.97L110.025,2273.84L94.473,2273.84L94.473,2173.04L137.385,2173.04C143.145,2173.04 148.449,2174.46 153.297,2177.29C158.145,2180.12 162.009,2183.96 164.889,2188.81C167.769,2193.66 169.209,2199.1 169.209,2205.15C169.209,2210.62 167.769,2215.71 164.889,2220.42C162.009,2225.12 158.169,2228.89 153.369,2231.72C152.215,2232.4 151.029,2233 149.814,2233.52L173.241,2273.98L154.377,2273.84L133.044,2235.97ZM110.025,2220.99L138.825,2220.99C141.609,2220.99 144.105,2220.3 146.313,2218.9C148.521,2217.51 150.249,2215.59 151.497,2213.14C152.745,2210.7 153.369,2207.98 153.369,2205.01C153.369,2201.65 152.577,2198.7 150.993,2196.15C149.409,2193.61 147.201,2191.62 144.369,2190.18C141.537,2188.74 138.345,2188.02 134.793,2188.02L110.025,2188.02L110.025,2220.99Z" style="fill:white;"/>
            </g>
            <g id="ICON_G_SMALL" transform="matrix(0.0814036,0,0,0.0814036,-174.668,-248.802)">
                <path d="M167.769,2237.55L139.113,2237.55L139.113,2222.14L183.753,2222.14C183.945,2223.2 184.089,2224.23 184.185,2225.24C184.281,2226.25 184.353,2227.21 184.401,2228.12C184.449,2229.03 184.473,2229.92 184.473,2230.78C184.473,2237.41 183.321,2243.43 181.017,2248.86C178.713,2254.28 175.521,2258.96 171.441,2262.9C167.361,2266.83 162.609,2269.88 157.185,2272.04C151.761,2274.2 145.881,2275.28 139.545,2275.28C132.249,2275.28 125.433,2273.96 119.097,2271.32C112.761,2268.68 107.193,2265.01 102.393,2260.3C97.593,2255.6 93.873,2250.1 91.233,2243.82C88.593,2237.53 87.273,2230.74 87.273,2223.44C87.273,2216.24 88.593,2209.52 91.233,2203.28C93.873,2197.04 97.569,2191.59 102.321,2186.94C107.073,2182.28 112.617,2178.66 118.953,2176.06C125.289,2173.47 132.105,2172.18 139.401,2172.18C144.489,2172.18 149.457,2172.9 154.305,2174.34C159.153,2175.78 163.545,2177.79 167.481,2180.38C171.417,2182.98 174.633,2185.95 177.129,2189.31L167.049,2199.82C164.169,2197.04 161.217,2194.74 158.193,2192.91C155.169,2191.09 152.073,2189.7 148.905,2188.74C145.737,2187.78 142.569,2187.3 139.401,2187.3C134.217,2187.3 129.441,2188.21 125.073,2190.03C120.705,2191.86 116.865,2194.4 113.553,2197.66C110.241,2200.93 107.673,2204.74 105.849,2209.11C104.025,2213.48 103.113,2218.26 103.113,2223.44C103.113,2228.43 104.073,2233.16 105.993,2237.62C107.913,2242.09 110.577,2246 113.985,2249.36C117.393,2252.72 121.329,2255.36 125.793,2257.28C130.257,2259.2 134.985,2260.16 139.977,2260.16C143.721,2260.16 147.273,2259.61 150.633,2258.5C153.993,2257.4 156.969,2255.84 159.561,2253.82C162.153,2251.81 164.169,2249.48 165.609,2246.84C167.049,2244.2 167.769,2241.39 167.769,2238.42L167.769,2237.55Z" style="fill:white;"/>
            </g>
            <g id="ICON_B_SMALL" transform="matrix(0.0814036,0,0,0.0814036,-154.278,-248.802)">
                <path d="M153.546,2218.66C156.228,2219.63 158.665,2220.91 160.857,2222.5C164.217,2224.95 166.833,2228 168.705,2231.65C170.577,2235.3 171.513,2239.47 171.513,2244.18C171.513,2248.98 170.769,2253.22 169.281,2256.92C167.793,2260.62 165.585,2263.71 162.657,2266.21C159.729,2268.7 156.201,2270.6 152.073,2271.9C147.945,2273.19 143.241,2273.84 137.961,2273.84L94.473,2273.84L94.473,2173.04L136.521,2173.04C142.953,2173.04 148.377,2174 152.793,2175.92C157.209,2177.84 160.545,2180.7 162.801,2184.49C165.057,2188.28 166.185,2192.91 166.185,2198.38C166.185,2203.86 164.673,2208.51 161.649,2212.35C159.527,2215.05 156.826,2217.15 153.546,2218.66ZM110.025,2258.86L137.097,2258.86C141.033,2258.86 144.369,2258.29 147.105,2257.14C149.841,2255.98 151.953,2254.28 153.441,2252.02C154.929,2249.77 155.673,2247.06 155.673,2243.89C155.673,2240.91 154.881,2238.37 153.297,2236.26C151.713,2234.14 149.481,2232.54 146.601,2231.43C143.721,2230.33 140.313,2229.78 136.377,2229.78L110.025,2229.78L110.025,2258.86ZM110.025,2214.8L135.657,2214.8C138.537,2214.8 141.105,2214.22 143.361,2213.07C145.617,2211.92 147.393,2210.34 148.689,2208.32C149.985,2206.3 150.633,2204 150.633,2201.41C150.633,2197.09 149.193,2193.78 146.313,2191.47C143.433,2189.17 139.305,2188.02 133.929,2188.02L110.025,2188.02L110.025,2214.8Z" style="fill:white;"/>
            </g>
            <g id="ICON_A_SMALL" transform="matrix(0.0814036,0,0,0.0814036,-132.52,-248.802)">
                <path d="M109.332,2248.78L99.801,2273.84L83.961,2273.84L122.985,2173.04L138.825,2173.04L177.561,2273.84L161.001,2273.84L151.501,2248.78L109.332,2248.78ZM145.823,2233.81L137.961,2213.07C137.673,2212.4 137.121,2210.77 136.305,2208.18C135.489,2205.58 134.553,2202.7 133.497,2199.54C132.441,2196.37 131.481,2193.46 130.617,2190.82C130.584,2190.72 130.551,2190.62 130.519,2190.52C130.387,2190.92 130.252,2191.34 130.113,2191.76C129.297,2194.26 128.433,2196.9 127.521,2199.68C126.609,2202.46 125.721,2205.08 124.857,2207.53L122.697,2213.65L115.029,2233.81L145.823,2233.81Z" style="fill:white;"/>
            </g>
        </g>
    </g>
</svg>
